<svg id="Layer_1" data-name="Layer 1" xmlns="http://www.w3.org/2000/svg" viewBox="0 0 72 72"><path d="M262,456.89v-72h72v72Z" transform="translate(-262 -384.89)" fill="#fefefe"/><path d="M297.52,437.88c-14.4,0-14.47,0-14.34-14.33,0-3.23-1.85-7.82,4.41-7.94,1.3,0,.67-2,.91-3.05,1.15-5.21,4.84-8.62,9.5-8.63s8.45,3.38,9.52,8.61c.35,1.75,0,3.64,2.88,3.47,2.12-.12,2.53,1.68,2.52,3.53,0,4.83-.08,9.66,0,14.48.06,2.8-1.24,3.91-3.92,3.88C305.18,437.84,301.35,437.88,297.52,437.88Z" transform="translate(-262 -384.89)" fill="#733d1a"/><path d="M322.54,435.69c-1.61.43-2.38.65-3.16.84-1.8.46-3-.28-3.23-2.06-.18-1.56.93-2.32,2.44-2.54q3.2-.48,6.37-1c2.33-.41,3.85.31,4.47,2.76.36,1.44,1.11,2.78,1.49,4.22s2.24,3.57-.35,4.7c-2.85,1.24-3.2-1.29-4.08-3.76-4.65,6.59-10.3,11.48-17.77,14-20.83,7-43.23-8-44.65-29.85-.12-1.93-.14-4.06,2.46-3.95,2.93.12,2.35,2.66,2.45,4.58.65,12.35,10,22.8,23.17,26C303.25,452.21,316.05,446.61,322.54,435.69Z" transform="translate(-262 -384.89)" fill="#723d19"/><path d="M273.49,406.08a29.87,29.87,0,0,1,3.66-.9,2.25,2.25,0,0,1,2.73,2.19,2.2,2.2,0,0,1-2,2.44c-2.28.43-4.59.71-6.88,1.1s-3.83-.42-4.45-2.82c-.37-1.44-1-2.81-1.47-4.24-.47-1.62-2.1-3.64.48-4.68,2.81-1.14,3.13,1.44,3.82,3.21,1.18-.17,1.58-1.19,2.18-1.95,9.08-11.37,22.44-15.67,36.14-11.6a33.57,33.57,0,0,1,24.24,29.85c.16,1.88.34,4.07-2.26,4.13-3,.08-2.51-2.47-2.61-4.4-.68-12.5-9.91-22.92-23.09-26.08C292.77,389.65,280,395.17,273.49,406.08Z" transform="translate(-262 -384.89)" fill="#723d19"/><path d="M298.05,433.11h-1c-10.05,0-10,0-9.25-9.93.16-2.13.78-2.93,2.92-2.88,4.82.1,9.65.08,14.47,0,2,0,2.84.57,3,2.79C309,433.12,309.12,433.11,298.05,433.11Z" transform="translate(-262 -384.89)" fill="#fdfcfc"/><path d="M293.12,415.64c-.33-3.71.34-6.67,4.59-6.85,4.56-.2,5.48,2.79,5.2,6.85Z" transform="translate(-262 -384.89)" fill="#fcfbfa"/></svg>