<svg id="view" xmlns="http://www.w3.org/2000/svg" width="15.632" height="15.632" viewBox="0 0 15.632 15.632">
  <path id="Path_1790" data-name="Path 1790" d="M16.033,3.5A14.091,14.091,0,0,0,14.7,1.974,14.091,14.091,0,0,0,13.18.645,2.423,2.423,0,0,0,11.793,0H4.221A1.222,1.222,0,0,0,3,1.221V14.411a1.222,1.222,0,0,0,1.221,1.221H15.457a1.222,1.222,0,0,0,1.221-1.221V4.885A2.415,2.415,0,0,0,16.033,3.5Zm-2.022-.83a13.024,13.024,0,0,1,1.107,1.241H12.77V1.56A13.436,13.436,0,0,1,14.011,2.667ZM15.7,14.411a.246.246,0,0,1-.244.244H4.221a.248.248,0,0,1-.244-.244V1.221A.248.248,0,0,1,4.221.977h7.572V4.4a.488.488,0,0,0,.488.488H15.7Z" transform="translate(-2.023)" fill="#e5252a"/>
  <path id="Path_1791" data-name="Path 1791" d="M19.327,36.977H12.488a.488.488,0,0,1,0-.977h6.839a.488.488,0,0,1,0,.977Z" transform="translate(-8.092 -24.276)" fill="#e5252a"/>
  <path id="Path_1792" data-name="Path 1792" d="M19.327,30.977H12.488a.488.488,0,1,1,0-.977h6.839a.488.488,0,1,1,0,.977Z" transform="translate(-8.092 -20.23)" fill="#e5252a"/>
  <path id="Path_1793" data-name="Path 1793" d="M19.327,24.977H12.488a.488.488,0,1,1,0-.977h6.839a.488.488,0,1,1,0,.977Z" transform="translate(-8.092 -16.184)" fill="#e5252a"/>
  <path id="Path_1794" data-name="Path 1794" d="M0,0H15.632V15.632H0Z" fill="none"/>
</svg>
