<svg xmlns="http://www.w3.org/2000/svg" width="15.782" height="17.882" viewBox="0 0 15.782 17.882">
  <g id="icon" transform="translate(-1.495 -1.694)">
    <path id="Path_783" data-name="Path 783" d="M42.04,39.322a5.3,5.3,0,0,1-7.483,0l-6.111-6.11a.692.692,0,1,1,.979-.979l6.111,6.111a3.907,3.907,0,1,0,5.526-5.526l-7.736-7.736A2.422,2.422,0,1,0,29.9,28.507l7.238,7.239a.971.971,0,0,0,1.374-1.374L32.9,28.761a.692.692,0,1,1,.979-.979l5.612,5.612a2.355,2.355,0,1,1-3.33,3.33L28.92,29.487A3.807,3.807,0,0,1,34.3,24.1L42.04,31.84a5.3,5.3,0,0,1,0,7.482Z" transform="translate(-26.31 -21.293)" fill="#723c18"/>
  </g>
</svg>
