<svg xmlns="http://www.w3.org/2000/svg" xmlns:xlink="http://www.w3.org/1999/xlink" width="33.979" height="33.708" viewBox="0 0 33.979 33.708">
  <defs>
    <filter id="Path_784" x="0" y="0" width="33.979" height="33.708" filterUnits="userSpaceOnUse">
      <feOffset dy="3" input="SourceAlpha"/>
      <feGaussianBlur stdDeviation="3" result="blur"/>
      <feFlood flood-opacity="0.161"/>
      <feComposite operator="in" in2="blur"/>
      <feComposite in="SourceGraphic"/>
    </filter>
  </defs>
  <g id="send" transform="matrix(0.848, -0.53, 0.53, 0.848, 0.51, -0.267)">
    <g id="Group_1027" data-name="Group 1027" transform="translate(0 16.02)">
      <g transform="matrix(0.85, 0.53, -0.53, 0.85, -0.57, -16.06)" filter="url(#Path_784)">
        <path id="Path_784-2" data-name="Path 784" d="M11.678,21.169.605,16.059a.428.428,0,0,0-.509.119.423.423,0,0,0-.01.523l3.641,4.855L.086,26.411a.426.426,0,0,0,.519.642l11.072-5.11a.426.426,0,0,0,0-.773Z" transform="matrix(0.85, -0.53, 0.53, 0.85, 0.51, -1.27)" fill="#fff"/>
      </g>
    </g>
  </g>
</svg>
