<svg id="repeat" xmlns="http://www.w3.org/2000/svg" width="15.605" height="14.305" viewBox="0 0 15.605 14.305">
  <g id="Group_984" data-name="Group 984">
    <g id="Group_983" data-name="Group 983" transform="translate(0 0)">
      <path id="Path_737" data-name="Path 737" d="M155.182,23.273h-3.639l.841-.841a.65.65,0,0,0-.92-.92l-1.951,1.951c-.015.015-.029.031-.043.048l-.017.023-.021.028-.017.028-.016.026c-.005.01-.01.02-.014.029l-.013.028c0,.01-.007.019-.011.029s-.008.02-.011.031-.005.02-.008.029-.006.021-.008.032,0,.023-.005.034,0,.019,0,.029,0,.042,0,.064h0q0,.032,0,.063c0,.01,0,.019,0,.029s0,.023.005.034.005.022.008.032,0,.02.008.029.007.021.011.031.007.019.011.029.009.019.013.028.009.02.014.029l.016.026.017.028.021.028.017.023c.014.017.028.033.043.048l1.951,1.951a.65.65,0,0,0,.92-.92l-.841-.841h3.632a3.9,3.9,0,0,1,3.9,3.9,3.528,3.528,0,0,1-1.04,2.5.65.65,0,1,0,.92.919,4.828,4.828,0,0,0,1.42-3.419A5.2,5.2,0,0,0,155.182,23.273Z" transform="translate(-144.772 -21.322)" fill="#d4454a"/>
      <path id="Path_738" data-name="Path 738" d="M10.923,146.091l.021-.028.017-.028.015-.026c.005-.01.01-.02.014-.03s.009-.019.013-.028.007-.019.011-.029.008-.02.011-.031.005-.02.008-.03.006-.021.008-.032,0-.023.005-.034,0-.019,0-.028a.654.654,0,0,0,0-.128c0-.01,0-.019,0-.028s0-.023-.005-.034-.005-.021-.008-.032,0-.02-.008-.029-.007-.021-.011-.031-.007-.02-.011-.029-.009-.019-.013-.028-.009-.02-.014-.03l-.015-.026-.017-.028-.02-.028-.017-.023c-.013-.016-.028-.032-.042-.047h0l-1.951-1.951a.65.65,0,0,0-.92.92l.841.841H5.2a3.9,3.9,0,0,1-3.9-3.9,3.528,3.528,0,0,1,1.04-2.5.65.65,0,1,0-.92-.919A4.828,4.828,0,0,0,0,141.15a5.2,5.2,0,0,0,5.194,5.2H8.833l-.841.841a.65.65,0,0,0,.92.92l1.951-1.951h0c.015-.015.029-.031.043-.047Z" transform="translate(0 -133.998)" fill="#d4454a"/>
    </g>
  </g>
</svg>
