<svg xmlns="http://www.w3.org/2000/svg" width="196.825" height="24.809" viewBox="0 0 196.825 24.809">
  <g id="logo" transform="translate(-563.989 -34)">
    <g id="Group_6" data-name="Group 6" transform="translate(563.989 34)">
      <g id="Group_1" data-name="Group 1" transform="translate(156.832 0)">
        <circle id="Ellipse_1" data-name="Ellipse 1" cx="2.353" cy="2.353" r="2.353" transform="translate(35.288 10.052)" fill="#a0a038"/>
        <circle id="Ellipse_2" data-name="Ellipse 2" cx="2.353" cy="2.353" r="2.353" transform="translate(30.19 5.026)" fill="#a0a038"/>
        <circle id="Ellipse_3" data-name="Ellipse 3" cx="2.353" cy="2.353" r="2.353" transform="translate(30.19 15.078)" fill="#a0a038"/>
        <circle id="Ellipse_4" data-name="Ellipse 4" cx="2.353" cy="2.353" r="2.353" transform="translate(25.093 0)" fill="#a0a038"/>
        <circle id="Ellipse_5" data-name="Ellipse 5" cx="2.353" cy="2.353" r="2.353" transform="translate(25.093 20.103)" fill="#a0a038"/>
        <circle id="Ellipse_6" data-name="Ellipse 6" cx="2.353" cy="2.353" r="2.353" transform="translate(22.74 10.052)" fill="#704018"/>
        <circle id="Ellipse_7" data-name="Ellipse 7" cx="2.353" cy="2.353" r="2.353" transform="translate(17.644 5.026)" fill="#704018"/>
        <circle id="Ellipse_8" data-name="Ellipse 8" cx="2.353" cy="2.353" r="2.353" transform="translate(17.644 15.078)" fill="#704018"/>
        <circle id="Ellipse_9" data-name="Ellipse 9" cx="2.353" cy="2.353" r="2.353" transform="translate(12.547 0)" fill="#704018"/>
        <circle id="Ellipse_10" data-name="Ellipse 10" cx="2.353" cy="2.353" r="2.353" transform="translate(12.547 20.103)" fill="#704018"/>
        <circle id="Ellipse_11" data-name="Ellipse 11" cx="2.353" cy="2.353" r="2.353" transform="translate(10.194 10.052)" fill="#d02028"/>
        <circle id="Ellipse_12" data-name="Ellipse 12" cx="2.353" cy="2.353" r="2.353" transform="translate(5.097 5.026)" fill="#d02028"/>
        <circle id="Ellipse_13" data-name="Ellipse 13" cx="2.353" cy="2.353" r="2.353" transform="translate(5.097 15.078)" fill="#d02028"/>
        <circle id="Ellipse_14" data-name="Ellipse 14" cx="2.353" cy="2.353" r="2.353" transform="translate(0 0)" fill="#d02028"/>
        <circle id="Ellipse_15" data-name="Ellipse 15" cx="2.353" cy="2.353" r="2.353" transform="translate(0 20.103)" fill="#d02028"/>
      </g>
      <g id="Group_5" data-name="Group 5" transform="translate(0 1.569)">
        <path id="Path_1" data-name="Path 1" d="M909.693,101.162h-5.848q-1.94-3-3.511-5.2t-3.4-4.518h-2.224v6.8a2.389,2.389,0,0,0,.17.929,1.176,1.176,0,0,0,.719.612,4.76,4.76,0,0,0,.964.2c.459.06.846.1,1.165.107v1.075h-9.187v-1.075c.248-.021.6-.055,1.064-.107a3.684,3.684,0,0,0,.972-.2,1.331,1.331,0,0,0,.667-.574,2,2,0,0,0,.205-.968V82.75a2.666,2.666,0,0,0-.153-.938,1.112,1.112,0,0,0-.722-.619,6.844,6.844,0,0,0-.992-.248,9.281,9.281,0,0,0-1.041-.142V79.728h10.027a11.411,11.411,0,0,1,2.583.28,7.061,7.061,0,0,1,2.191.9,4.548,4.548,0,0,1,1.514,1.579,4.6,4.6,0,0,1,.568,2.349,5.847,5.847,0,0,1-.383,2.191,4.481,4.481,0,0,1-1.135,1.645,6.647,6.647,0,0,1-1.654,1.125,12.545,12.545,0,0,1-2.129.809q1.607,2.1,2.674,3.534t2.608,3.489a7.027,7.027,0,0,0,1.218,1.337,6.542,6.542,0,0,0,1.075.7,3.662,3.662,0,0,0,.992.3,7.627,7.627,0,0,0,.992.121Zm-8.052-15.973A4.18,4.18,0,0,0,900.51,82.1a4.31,4.31,0,0,0-3.2-1.138h-2.6v9.184h2.006a4.925,4.925,0,0,0,3.521-1.336,4.762,4.762,0,0,0,1.4-3.627Z" transform="translate(-864.441 -79.49)" fill="#d02028"/>
        <path id="Path_2" data-name="Path 2" d="M937.662,101.161h-9.6v-1.075c.348-.01.794-.046,1.34-.107a3.41,3.41,0,0,0,1.126-.256,1.958,1.958,0,0,0,.7-.657,1.769,1.769,0,0,0,.224-.929V82.552h-.233l-7.407,18.262h-.763l-7.057-18.64h-.2V94.968a12.49,12.49,0,0,0,.238,2.825,2.61,2.61,0,0,0,.727,1.39,3.574,3.574,0,0,0,1.393.6,8.569,8.569,0,0,0,1.378.3v1.075h-8.772V100.09a11.135,11.135,0,0,0,1.448-.228,2.833,2.833,0,0,0,1.17-.5,2.209,2.209,0,0,0,.735-1.3,14.817,14.817,0,0,0,.2-2.931V84.17a4.448,4.448,0,0,0-.23-1.555,2.421,2.421,0,0,0-.661-.982,3.042,3.042,0,0,0-1.163-.6,5.885,5.885,0,0,0-1.364-.226V79.728h7.4l6.226,16.087,5.312-13.459a13.242,13.242,0,0,0,.5-1.549,6.949,6.949,0,0,0,.221-1.082h7.083V80.8a7.643,7.643,0,0,0-1.095.135,7.408,7.408,0,0,0-.972.226,1.124,1.124,0,0,0-.705.6,2.316,2.316,0,0,0-.183.923V98.141a1.968,1.968,0,0,0,.183.891,1.571,1.571,0,0,0,.705.634,3.608,3.608,0,0,0,.98.279,8.47,8.47,0,0,0,1.116.143Z" transform="translate(-863.429 -79.489)" fill="#d02028"/>
        <path id="Path_3" data-name="Path 3" d="M984.362,90.574a10.184,10.184,0,0,1-1.041,4.742,9.686,9.686,0,0,1-2.71,3.294,11.779,11.779,0,0,1-3.778,1.919,14.837,14.837,0,0,1-4.332.634h-9v-1.075a10.835,10.835,0,0,0,1.158-.083,3.812,3.812,0,0,0,.941-.189,1.323,1.323,0,0,0,.667-.579,1.968,1.968,0,0,0,.207-.93V82.838a2.28,2.28,0,0,0-.178-.92,1.3,1.3,0,0,0-.7-.65,4.128,4.128,0,0,0-1.025-.331,8.064,8.064,0,0,0-.949-.135V79.728h9.49a12.743,12.743,0,0,1,3.856.6,11.461,11.461,0,0,1,3.308,1.608,9.261,9.261,0,0,1,3,3.519,11.309,11.309,0,0,1,1.083,5.121Zm-3.751-.009a12.276,12.276,0,0,0-.579-3.9,8.915,8.915,0,0,0-1.7-3.042,7.513,7.513,0,0,0-2.595-1.947,8.066,8.066,0,0,0-3.421-.709c-.413,0-.891.007-1.416.022s-.915.028-1.17.038V97.493a2.1,2.1,0,0,0,.81,1.9,4.67,4.67,0,0,0,2.5.528,7.98,7.98,0,0,0,3.4-.678,6.144,6.144,0,0,0,2.359-1.886,8.408,8.408,0,0,0,1.384-2.937,15.328,15.328,0,0,0,.433-3.857Z" transform="translate(-861.026 -79.49)" fill="#d02028"/>
        <g id="Group_2" data-name="Group 2" transform="translate(0)">
          <path id="Path_4" data-name="Path 4" d="M886.9,79.5l-4.573,15.689-.515,2.105a2.3,2.3,0,0,0-.07.509.959.959,0,0,0,.236.647.6.6,0,0,0,.467.208,1.488,1.488,0,0,0,.8-.37,13.484,13.484,0,0,0,2.44-2.777l.8.557a14.706,14.706,0,0,1-3.331,3.668,5.47,5.47,0,0,1-3.164,1.26,2.067,2.067,0,0,1-1.512-.5,1.955,1.955,0,0,1-.506-1.446,11.6,11.6,0,0,1,.518-2.984l.491-1.737a22.8,22.8,0,0,1-5.651,5.53A6.946,6.946,0,0,1,869.691,101a3.827,3.827,0,0,1-2.952-1.4,5.6,5.6,0,0,1-1.24-3.853,16.175,16.175,0,0,1,2.239-7.763,19.184,19.184,0,0,1,5.685-6.533,8.831,8.831,0,0,1,5.086-1.944,3.75,3.75,0,0,1,2.382.744,4.617,4.617,0,0,1,1.441,2.452l.844-2.637Zm-8.348,1.2a5.127,5.127,0,0,0-3.187,1.389,16.921,16.921,0,0,0-4.257,5.83,16.347,16.347,0,0,0-1.863,6.989,3.657,3.657,0,0,0,.8,2.487,2.38,2.38,0,0,0,1.828.915q2.563,0,5.558-3.726a16.013,16.013,0,0,0,4.01-10.159,4.256,4.256,0,0,0-.775-2.845,2.658,2.658,0,0,0-2.109-.88Z" transform="translate(-865.489 -79.5)" fill="#d02028"/>
        </g>
        <g id="Group_3" data-name="Group 3" transform="translate(77.77)">
          <path id="Path_5" data-name="Path 5" d="M961.286,79.5l-4.571,15.689-.515,2.105a2.311,2.311,0,0,0-.071.509.96.96,0,0,0,.237.647.6.6,0,0,0,.468.208,1.484,1.484,0,0,0,.8-.37,13.428,13.428,0,0,0,2.44-2.777l.8.557a14.743,14.743,0,0,1-3.329,3.668,5.473,5.473,0,0,1-3.167,1.26,2.072,2.072,0,0,1-1.512-.5,1.959,1.959,0,0,1-.505-1.446,11.645,11.645,0,0,1,.518-2.984l.491-1.737a22.846,22.846,0,0,1-5.648,5.53A6.963,6.963,0,0,1,944.075,101a3.827,3.827,0,0,1-2.955-1.4,5.606,5.606,0,0,1-1.24-3.853,16.208,16.208,0,0,1,2.238-7.763,19.185,19.185,0,0,1,5.687-6.533,8.832,8.832,0,0,1,5.087-1.944,3.742,3.742,0,0,1,2.38.744,4.611,4.611,0,0,1,1.442,2.452l.845-2.637Zm-8.345,1.2a5.127,5.127,0,0,0-3.188,1.389,16.908,16.908,0,0,0-4.256,5.83,16.321,16.321,0,0,0-1.864,6.989,3.647,3.647,0,0,0,.8,2.487,2.373,2.373,0,0,0,1.828.915q2.564,0,5.556-3.726a16.029,16.029,0,0,0,4.011-10.159,4.255,4.255,0,0,0-.775-2.845A2.663,2.663,0,0,0,952.941,80.7Z" transform="translate(-939.871 -79.5)" fill="#d02028"/>
        </g>
        <g id="Group_4" data-name="Group 4" transform="translate(126.013)">
          <path id="Path_6" data-name="Path 6" d="M1007.428,79.5l-4.57,15.689-.517,2.105a2.182,2.182,0,0,0-.07.509.963.963,0,0,0,.234.647.6.6,0,0,0,.467.208,1.48,1.48,0,0,0,.8-.37,13.43,13.43,0,0,0,2.44-2.777l.8.557a14.67,14.67,0,0,1-3.333,3.668,5.465,5.465,0,0,1-3.164,1.26,2.067,2.067,0,0,1-1.512-.5,1.947,1.947,0,0,1-.506-1.446,11.61,11.61,0,0,1,.519-2.984l.5-1.737a22.8,22.8,0,0,1-5.651,5.53A6.957,6.957,0,0,1,990.219,101a3.819,3.819,0,0,1-2.954-1.4,5.6,5.6,0,0,1-1.245-3.853,16.2,16.2,0,0,1,2.241-7.763,19.185,19.185,0,0,1,5.685-6.533,8.832,8.832,0,0,1,5.089-1.944,3.739,3.739,0,0,1,2.378.744,4.612,4.612,0,0,1,1.444,2.452l.842-2.637Zm-8.346,1.2a5.133,5.133,0,0,0-3.189,1.389,16.952,16.952,0,0,0-4.256,5.83,16.351,16.351,0,0,0-1.864,6.989,3.647,3.647,0,0,0,.8,2.488,2.378,2.378,0,0,0,1.828.915q2.564,0,5.557-3.726a16.013,16.013,0,0,0,4.01-10.159,4.256,4.256,0,0,0-.774-2.845,2.661,2.661,0,0,0-2.108-.88Z" transform="translate(-986.011 -79.5)" fill="#d02028"/>
        </g>
      </g>
    </g>
  </g>
</svg>
