<svg xmlns="http://www.w3.org/2000/svg" width="17.801" height="15.238" viewBox="0 0 17.801 15.238">
  <g id="cart" transform="translate(0 -18.408)">
    <path id="Path_739" data-name="Path 739" d="M17.279,18.408H14.074a1.506,1.506,0,0,0-1.388,1.05l-.866,3.064a1.16,1.16,0,0,0-.312-.044H1.153A1.142,1.142,0,0,0,.006,23.745l.483,4.9A1.3,1.3,0,0,0,1.773,29.8H9.81a1.491,1.491,0,0,0,1.382-1.058L12.2,25.023l1.492-5.281a.461.461,0,0,1,.383-.29h3.205a.522.522,0,0,0,0-1.044ZM10.184,28.474a.447.447,0,0,1-.374.286H1.773a.265.265,0,0,1-.245-.222l-.483-4.9a.1.1,0,0,1,.108-.119H11.522l0,.013Z" transform="translate(0)" fill="#723c18"/>
    <path id="Path_740" data-name="Path 740" d="M25.653,190.664a1.624,1.624,0,1,0,1.624,1.624A1.626,1.626,0,0,0,25.653,190.664Zm0,2.2a.58.58,0,1,1,.58-.58A.58.58,0,0,1,25.653,192.867Z" transform="translate(-22.356 -160.266)" fill="#723c18"/>
    <path id="Path_741" data-name="Path 741" d="M99.624,190.664a1.624,1.624,0,1,0,1.624,1.624A1.626,1.626,0,0,0,99.624,190.664Zm0,2.2a.58.58,0,1,1,.58-.58A.58.58,0,0,1,99.624,192.867Z" transform="translate(-91.178 -160.266)" fill="#723c18"/>
  </g>
</svg>
