<svg xmlns="http://www.w3.org/2000/svg" width="13.594" height="15.168" viewBox="0 0 13.594 15.168">
  <g id="writing" transform="translate(-26.57)">
    <g id="Group_1040" data-name="Group 1040" transform="translate(26.57)">
      <g id="Group_1039" data-name="Group 1039">
        <path id="Path_786" data-name="Path 786" d="M113.747,200.593a.592.592,0,0,0-.593-.593h-6.1a.593.593,0,0,0,0,1.185h6.1A.592.592,0,0,0,113.747,200.593Z" transform="translate(-104.092 -194.075)" fill="#656565"/>
        <path id="Path_787" data-name="Path 787" d="M107.052,280a.593.593,0,1,0,0,1.185h3.707a.593.593,0,1,0,0-1.185Z" transform="translate(-104.092 -271.705)" fill="#656565"/>
        <path id="Path_788" data-name="Path 788" d="M30.922,13.983H28.94A1.186,1.186,0,0,1,27.755,12.8V2.37A1.186,1.186,0,0,1,28.94,1.185h7.285A1.186,1.186,0,0,1,37.41,2.37V6.014a.593.593,0,1,0,1.185,0V2.37A2.373,2.373,0,0,0,36.225,0H28.94a2.373,2.373,0,0,0-2.37,2.37V12.8a2.373,2.373,0,0,0,2.37,2.37h1.982a.593.593,0,0,0,0-1.185Z" transform="translate(-26.57)" fill="#656565"/>
        <path id="Path_789" data-name="Path 789" d="M250.106,272.544a1.779,1.779,0,0,0-2.513,0l-3.253,3.246a.592.592,0,0,0-.148.247l-.708,2.332a.592.592,0,0,0,.725.743l2.392-.662a.592.592,0,0,0,.26-.152l3.246-3.24A1.78,1.78,0,0,0,250.106,272.544Zm-3.973,4.805-1.2.333.352-1.159,2.195-2.19.838.838Zm3.136-3.13-.115.115-.838-.838.114-.114a.593.593,0,0,1,.838.838Z" transform="translate(-237.032 -263.965)" fill="#656565"/>
        <path id="Path_790" data-name="Path 790" d="M113.154,120h-6.1a.593.593,0,1,0,0,1.185h6.1a.593.593,0,1,0,0-1.185Z" transform="translate(-104.092 -116.445)" fill="#656565"/>
      </g>
    </g>
  </g>
</svg>
