<svg xmlns="http://www.w3.org/2000/svg" width="20.273" height="17.355" viewBox="0 0 20.273 17.355">
  <g id="cart" transform="translate(0 0)">
    <path id="Path_739" data-name="Path 739" d="M.595,18.408h3.65a1.715,1.715,0,0,1,1.58,1.2l.986,3.49a1.321,1.321,0,0,1,.355-.05H18.96a1.3,1.3,0,0,1,1.307,1.442l-.55,5.575a1.483,1.483,0,0,1-1.462,1.325H9.1a1.7,1.7,0,0,1-1.574-1.2l-1.147-4.24-1.7-6.015a.525.525,0,0,0-.436-.33H.595a.595.595,0,0,1,0-1.189Zm8.08,11.464A.509.509,0,0,0,9.1,30.2h9.154a.3.3,0,0,0,.279-.253l.55-5.575a.113.113,0,0,0-.123-.136H7.152l0,.015Z" transform="translate(0 -18.408)" fill="#723c18"/>
    <path id="Path_740" data-name="Path 740" d="M25.878,190.664a1.849,1.849,0,1,1-1.849,1.849A1.852,1.852,0,0,1,25.878,190.664Zm0,2.51a.66.66,0,1,0-.66-.66A.661.661,0,0,0,25.878,193.174Z" transform="translate(-9.359 -177.008)" fill="#723c18"/>
    <path id="Path_741" data-name="Path 741" d="M99.849,190.664A1.849,1.849,0,1,1,98,192.513,1.852,1.852,0,0,1,99.849,190.664Zm0,2.51a.66.66,0,1,0-.66-.66A.661.661,0,0,0,99.849,193.174Z" transform="translate(-89.194 -177.008)" fill="#723c18"/>
  </g>
</svg>
