<svg id="menu" xmlns="http://www.w3.org/2000/svg" width="18.546" height="17.633" viewBox="0 0 18.546 17.633">
  <path id="Path_112" data-name="Path 112" d="M50.791,33.5H34.724a1.189,1.189,0,1,0,0,2.376h16.1a1.193,1.193,0,0,0,1.224-1.188A1.239,1.239,0,0,0,50.791,33.5Z" transform="translate(-33.5 -33.5)" fill="#723c18"/>
  <path id="Path_113" data-name="Path 113" d="M50.791,87.4H34.724a1.189,1.189,0,1,0,0,2.376h16.1a1.194,1.194,0,0,0,1.224-1.188A1.239,1.239,0,0,0,50.791,87.4Z" transform="translate(-33.5 -72.143)" fill="#723c18"/>
  <path id="Path_114" data-name="Path 114" d="M50.791,60.4H34.724a1.189,1.189,0,1,0,0,2.376h16.1a1.194,1.194,0,0,0,1.224-1.188A1.239,1.239,0,0,0,50.791,60.4Z" transform="translate(-33.5 -52.786)" fill="#723c18"/>
</svg>
