<svg id="calendar" xmlns="http://www.w3.org/2000/svg" width="15.318" height="15.666" viewBox="0 0 15.318 15.666">
  <g id="Group_993" data-name="Group 993">
    <path id="Path_771" data-name="Path 771" d="M118.987,258.6a.355.355,0,0,0-.356-.355H117.39a.355.355,0,0,0-.355.355v1.241a.355.355,0,0,0,.355.356h1.241a.355.355,0,0,0,.356-.356V258.6Z" transform="translate(-113.453 -249.955)" fill="#723c18"/>
    <path id="Path_772" data-name="Path 772" d="M215.622,258.6a.355.355,0,0,0-.355-.355h-1.241a.355.355,0,0,0-.355.355v1.241a.355.355,0,0,0,.355.356h1.241a.355.355,0,0,0,.355-.356Z" transform="translate(-206.987 -249.955)" fill="#723c18"/>
    <path id="Path_773" data-name="Path 773" d="M312.25,258.6a.355.355,0,0,0-.355-.355h-1.241a.355.355,0,0,0-.356.355v1.241a.355.355,0,0,0,.356.356h1.241a.355.355,0,0,0,.355-.356Z" transform="translate(-300.514 -249.955)" fill="#723c18"/>
    <path id="Path_774" data-name="Path 774" d="M118.987,355.23a.355.355,0,0,0-.356-.355H117.39a.355.355,0,0,0-.355.355v1.24a.355.355,0,0,0,.355.355h1.241a.355.355,0,0,0,.356-.355v-1.24Z" transform="translate(-113.453 -343.487)" fill="#723c18"/>
    <path id="Path_775" data-name="Path 775" d="M215.622,355.23a.355.355,0,0,0-.355-.355h-1.241a.355.355,0,0,0-.355.355v1.24a.355.355,0,0,0,.355.355h1.241a.355.355,0,0,0,.355-.355Z" transform="translate(-206.987 -343.487)" fill="#723c18"/>
    <path id="Path_776" data-name="Path 776" d="M312.25,355.23a.355.355,0,0,0-.355-.355h-1.241a.355.355,0,0,0-.356.355v1.24a.355.355,0,0,0,.356.355h1.241a.355.355,0,0,0,.355-.355v-1.24Z" transform="translate(-300.514 -343.487)" fill="#723c18"/>
    <path id="Path_777" data-name="Path 777" d="M19.366,54.149v1.895a1.548,1.548,0,0,1-1.551,1.547h-.979a1.556,1.556,0,0,1-1.561-1.547v-1.9H10.865v1.9A1.556,1.556,0,0,1,9.3,57.591H8.326a1.548,1.548,0,0,1-1.551-1.547V54.149a1.411,1.411,0,0,0-1.364,1.4V66.658a1.411,1.411,0,0,0,1.4,1.412h12.51a1.413,1.413,0,0,0,1.4-1.412V55.552A1.411,1.411,0,0,0,19.366,54.149Zm-.455,11.817a.607.607,0,0,1-.607.607H7.809a.607.607,0,0,1-.607-.607V60.23a.607.607,0,0,1,.607-.607H18.3a.607.607,0,0,1,.607.607v5.736Z" transform="translate(-5.411 -52.405)" fill="#723c18"/>
    <path id="Path_778" data-name="Path 778" d="M80.082,4.17h.968a.532.532,0,0,0,.532-.532V.532A.532.532,0,0,0,81.05,0h-.968a.532.532,0,0,0-.532.532V3.638A.532.532,0,0,0,80.082,4.17Z" transform="translate(-77.171)" fill="#723c18"/>
    <path id="Path_779" data-name="Path 779" d="M344.99,4.17h.968a.532.532,0,0,0,.532-.532V.532A.532.532,0,0,0,345.958,0h-.968a.532.532,0,0,0-.532.532V3.638A.532.532,0,0,0,344.99,4.17Z" transform="translate(-333.578)" fill="#723c18"/>
  </g>
</svg>
