<svg id="filter" xmlns="http://www.w3.org/2000/svg" width="20.971" height="19.213" viewBox="0 0 20.971 19.213">
  <path id="Path_728" data-name="Path 728" d="M84.417,82.091H71.924a2.577,2.577,0,0,0-4.886,0h-1.95a.82.82,0,0,0,0,1.641h1.95a2.577,2.577,0,0,0,4.886,0H84.418a.82.82,0,1,0,0-1.641ZM69.481,83.849a.937.937,0,1,1,.937-.937A.938.938,0,0,1,69.481,83.849Z" transform="translate(-64.267 -80.334)" fill="#723c18"/>
  <path id="Path_729" data-name="Path 729" d="M84.417,210.624h-1.95a2.577,2.577,0,0,0-4.886,0H65.087a.82.82,0,1,0,0,1.641H77.581a2.577,2.577,0,0,0,4.886,0h1.95a.82.82,0,1,0,0-1.641Zm-4.393,1.757a.937.937,0,1,1,.937-.937A.938.938,0,0,1,80.024,212.382Z" transform="translate(-64.267 -201.838)" fill="#723c18"/>
  <path id="Path_730" data-name="Path 730" d="M84.417,339.157H75.438a2.577,2.577,0,0,0-4.886,0H65.087a.82.82,0,0,0,0,1.641h5.465a2.577,2.577,0,0,0,4.886,0h8.979a.82.82,0,1,0,0-1.641ZM73,340.915a.937.937,0,1,1,.937-.937A.938.938,0,0,1,73,340.915Z" transform="translate(-64.267 -323.342)" fill="#723c18"/>
</svg>
