<svg id="info" xmlns="http://www.w3.org/2000/svg" width="11.5" height="11.5" viewBox="0 0 11.5 11.5">
  <path id="Path_1700" data-name="Path 1700" d="M21.438,13.479A.479.479,0,1,1,20.958,13,.481.481,0,0,1,21.438,13.479ZM20,15.276a.359.359,0,0,1,.359-.359h.719a.359.359,0,0,1,.359.359v2.036H21.8a.359.359,0,0,1,0,.719H20.359a.359.359,0,0,1,0-.719h.359V15.635h-.359A.359.359,0,0,1,20,15.276Z" transform="translate(-15.208 -9.885)" fill="#646161"/>
  <path id="Path_1701" data-name="Path 1701" d="M7.271,2a5.271,5.271,0,1,0,5.271,5.271A5.271,5.271,0,0,0,7.271,2ZM2.719,7.271a4.552,4.552,0,1,1,4.552,4.552A4.553,4.553,0,0,1,2.719,7.271Z" transform="translate(-1.521 -1.521)" fill="#646161" fill-rule="evenodd"/>
  <path id="Path_1702" data-name="Path 1702" d="M0,0H11.5V11.5H0Z" fill="none"/>
</svg>
