<svg xmlns="http://www.w3.org/2000/svg" width="12" height="12" viewBox="0 0 12 12">
  <path id="Subtraction_2" data-name="Subtraction 2" d="M6,12a6,6,0,1,1,6-6A6.007,6.007,0,0,1,6,12ZM5.979,6.611H6L7.516,8.484A.464.464,0,0,0,7.9,8.65c.276,0,.485-.16.485-.373a.424.424,0,0,0-.1-.256L6.567,5.963l1.739-2a.385.385,0,0,0,.1-.252c0-.207-.216-.363-.5-.363a.468.468,0,0,0-.392.2L6.041,5.361H6.015L4.509,3.529a.443.443,0,0,0-.387-.18c-.28,0-.5.158-.5.363a.4.4,0,0,0,.107.266L5.452,6,3.7,8.035a.4.4,0,0,0-.1.248c0,.209.207.367.481.367a.467.467,0,0,0,.382-.166L5.978,6.613Z" transform="translate(-0.001)" fill="#bad1c6"/>
</svg>
