<svg xmlns="http://www.w3.org/2000/svg" xmlns:xlink="http://www.w3.org/1999/xlink" width="24" height="24" viewBox="0 0 24 24">
  <defs>
    <clipPath id="clip-path">
      <rect id="Rectangle_581" data-name="Rectangle 581" width="24" height="24" transform="translate(80 97)" fill="none"/>
    </clipPath>
  </defs>
  <g id="timer" transform="translate(-80 -97)" clip-path="url(#clip-path)">
    <g id="cutoff" transform="translate(62.201 78.842)">
      <g id="Group_1698" data-name="Group 1698" transform="translate(28.945 22.439)">
        <path id="Path_1762" data-name="Path 1762" d="M245.878,246.459v.277a.561.561,0,0,1-.559.559h-5.759a.561.561,0,0,1-.559-.559v-.277a.561.561,0,0,1,.559-.559h5.759A.565.565,0,0,1,245.878,246.459Z" transform="translate(-239 -238.705)" fill="#d02028"/>
        <path id="Path_1763" data-name="Path 1763" d="M247.094,103.1h.242a.5.5,0,0,1,.494.494V111.5a.5.5,0,0,1-.494.494h-.242a.5.5,0,0,1-.494-.494v-7.906A.5.5,0,0,1,247.094,103.1Z" transform="translate(-246.217 -103.1)" fill="#d02028"/>
      </g>
      <circle id="Ellipse_118" data-name="Ellipse 118" cx="1.134" cy="1.134" r="1.134" transform="translate(28.683 29.065)" fill="#d02028"/>
      <g id="Group_1699" data-name="Group 1699" transform="translate(17.799 18.159)">
        <path id="Path_1764" data-name="Path 1764" d="M129.524,39.807a.955.955,0,0,1-.554-.343.94.94,0,0,1,.166-1.32,10.114,10.114,0,0,0-11.8-16.411.941.941,0,1,1-1.043-1.567,11.992,11.992,0,0,1,13.993,19.46A.93.93,0,0,1,129.524,39.807Z" transform="translate(-110.931 -18.159)" fill="#d02028"/>
        <path id="Path_1765" data-name="Path 1765" d="M43.275,100.533a.943.943,0,0,1-.4-1.27l.005-.01a11.74,11.74,0,0,1,1.426-2.131.941.941,0,0,1,1.446,1.2,10.376,10.376,0,0,0-1.2,1.8l-.005.01A.94.94,0,0,1,43.275,100.533Z" transform="translate(-41.511 -92.822)" fill="#d02028"/>
        <path id="Path_1766" data-name="Path 1766" d="M18.529,203.5a.943.943,0,0,1-.731-.932,12.353,12.353,0,0,1,.176-1.874.941.941,0,0,1,1.854.322,10.442,10.442,0,0,0-.151,1.577.947.947,0,0,1-.957.927A.635.635,0,0,1,18.529,203.5Z" transform="translate(-17.799 -190.753)" fill="#d02028"/>
        <path id="Path_1767" data-name="Path 1767" d="M25.432,293.858a.942.942,0,0,1-.645-.559,12.5,12.5,0,0,1-.519-1.592.94.94,0,1,1,1.824-.454,10.412,10.412,0,0,0,.438,1.34.941.941,0,0,1-.519,1.224A.957.957,0,0,1,25.432,293.858Z" transform="translate(-23.915 -276.815)" fill="#d02028"/>
        <path id="Path_1768" data-name="Path 1768" d="M66.093,375.539a.929.929,0,0,1-.307-.2,11.609,11.609,0,0,1-1.018-1.149.941.941,0,0,1,1.486-1.154,11.189,11.189,0,0,0,.857.967.94.94,0,0,1,.005,1.33A.956.956,0,0,1,66.093,375.539Z" transform="translate(-62.213 -354.807)" fill="#d02028"/>
        <path id="Path_1769" data-name="Path 1769" d="M216.461,458.358a.941.941,0,0,1,.272-1.859c.272.025.544.04.811.045a.94.94,0,1,1-.035,1.879c-.323-.005-.645-.025-.962-.055A.5.5,0,0,1,216.461,458.358Z" transform="translate(-205.728 -434.406)" fill="#d02028"/>
        <path id="Path_1770" data-name="Path 1770" d="M135.205,433.391a.942.942,0,0,1,1.27-1.27,10.256,10.256,0,0,0,1.1.494.942.942,0,1,1-.665,1.764,11.644,11.644,0,0,1-1.31-.584A.959.959,0,0,1,135.205,433.391Z" transform="translate(-129.189 -411.163)" fill="#d02028"/>
        <path id="Path_1771" data-name="Path 1771" d="M296.7,447.969a.941.941,0,0,1-.06-1.829c.186-.05.378-.111.559-.171a.943.943,0,1,1,.6,1.789c-.222.076-.443.141-.665.2A1.049,1.049,0,0,1,296.7,447.969Z" transform="translate(-281.93 -424.365)" fill="#d02028"/>
      </g>
      <path id="Path_1772" data-name="Path 1772" d="M369.415,370.134,372.771,369a.475.475,0,0,0,.161-.806l-2.66-2.338a.472.472,0,0,0-.776.262l-.7,3.477A.47.47,0,0,0,369.415,370.134Z" transform="translate(-333.306 -330.064)" fill="#d02028"/>
    </g>
  </g>
</svg>
